<svg width="73" height="96" viewBox="0 0 73 96" fill="none" xmlns="http://www.w3.org/2000/svg">
<g clip-path="url(#clip0_45324_369327)">
<path d="M34.2422 21.1792H21.7578C21.3395 21.1522 20.9472 20.9676 20.6605 20.663C20.3738 20.3583 20.2142 19.9564 20.2142 19.5388C20.2142 19.1212 20.3738 18.7193 20.6605 18.4147C20.9472 18.11 21.3395 17.9254 21.7578 17.8984H34.2422C34.6605 17.9254 35.0529 18.11 35.3396 18.4147C35.6263 18.7193 35.7858 19.1212 35.7858 19.5388C35.7858 19.9564 35.6263 20.3583 35.3396 20.663C35.0529 20.9676 34.6605 21.1522 34.2422 21.1792Z" fill="#00CBBF"/>
<path d="M34.2422 21.1792H21.7578C21.3395 21.1522 20.9472 20.9676 20.6605 20.663C20.3738 20.3583 20.2142 19.9564 20.2142 19.5388C20.2142 19.1212 20.3738 18.7193 20.6605 18.4147C20.9472 18.11 21.3395 17.9254 21.7578 17.8984H34.2422C34.6605 17.9254 35.0529 18.11 35.3396 18.4147C35.6263 18.7193 35.7858 19.1212 35.7858 19.5388C35.7858 19.9564 35.6263 20.3583 35.3396 20.663C35.0529 20.9676 34.6605 21.1522 34.2422 21.1792Z" fill="#00CBBF"/>
<path d="M49.0811 95.9941H6.91887C5.08753 95.9941 3.3312 95.2694 2.03625 93.9796C0.741303 92.6897 0.0138131 90.9403 0.0138131 89.1161V38.6322C0.0409159 38.2155 0.226206 37.8247 0.532072 37.5392C0.837937 37.2536 1.24145 37.0947 1.66067 37.0947C2.07988 37.0947 2.48339 37.2536 2.78926 37.5392C3.09512 37.8247 3.28041 38.2155 3.30752 38.6322V89.1093C3.30935 90.0658 3.69209 90.9824 4.37174 91.6581C5.05139 92.3338 5.97242 92.7133 6.93267 92.7133H49.095C50.0552 92.7133 50.9762 92.3338 51.6559 91.6581C52.3355 90.9824 52.7183 90.0658 52.7201 89.1093V18.8857C52.7183 17.9293 52.3355 17.0126 51.6559 16.3369C50.9762 15.6612 50.0552 15.2817 49.095 15.2817H6.91887C5.95861 15.2817 5.03758 15.6612 4.35793 16.3369C3.67828 17.0126 3.29554 17.9293 3.29371 18.8857V29.7735C3.26661 30.1902 3.08131 30.581 2.77545 30.8665C2.46958 31.1521 2.06607 31.311 1.64685 31.311C1.22763 31.311 0.824134 31.1521 0.518269 30.8665C0.212404 30.581 0.0271029 30.1902 0 29.7735V18.8857C0 17.0616 0.7275 15.3122 2.02245 14.0223C3.3174 12.7325 5.07372 12.0078 6.90506 12.0078H49.0673C50.8987 12.0078 52.655 12.7325 53.9499 14.0223C55.2449 15.3122 55.9724 17.0616 55.9724 18.8857V89.1093C55.9724 90.9334 55.2449 92.6828 53.9499 93.9727C52.655 95.2626 50.8987 95.9872 49.0673 95.9872" fill="#00CBBF"/>
<path d="M49.0811 95.9941H6.91887C5.08753 95.9941 3.3312 95.2694 2.03625 93.9796C0.741303 92.6897 0.0138131 90.9403 0.0138131 89.1161V38.6322C0.0409159 38.2155 0.226206 37.8247 0.532072 37.5392C0.837937 37.2536 1.24145 37.0947 1.66067 37.0947C2.07988 37.0947 2.48339 37.2536 2.78926 37.5392C3.09512 37.8247 3.28041 38.2155 3.30752 38.6322V89.1093C3.30935 90.0658 3.69209 90.9824 4.37174 91.6581C5.05139 92.3338 5.97242 92.7133 6.93267 92.7133H49.095C50.0552 92.7133 50.9762 92.3338 51.6559 91.6581C52.3355 90.9824 52.7183 90.0658 52.7201 89.1093V18.8857C52.7183 17.9293 52.3355 17.0126 51.6559 16.3369C50.9762 15.6612 50.0552 15.2817 49.095 15.2817H6.91887C5.95861 15.2817 5.03758 15.6612 4.35793 16.3369C3.67828 17.0126 3.29554 17.9293 3.29371 18.8857V29.7735C3.26661 30.1902 3.08131 30.581 2.77545 30.8665C2.46958 31.1521 2.06607 31.311 1.64685 31.311C1.22763 31.311 0.824134 31.1521 0.518269 30.8665C0.212404 30.581 0.0271029 30.1902 0 29.7735V18.8857C0 17.0616 0.7275 15.3122 2.02245 14.0223C3.3174 12.7325 5.07372 12.0078 6.90506 12.0078H49.0673C50.8987 12.0078 52.655 12.7325 53.9499 14.0223C55.2449 15.3122 55.9724 17.0616 55.9724 18.8857V89.1093C55.9724 90.9334 55.2449 92.6828 53.9499 93.9727C52.655 95.2626 50.8987 95.9872 49.0673 95.9872" fill="#00CBBF"/>
<path d="M28 90.1739C27.4976 90.1721 27.0164 89.972 26.6618 89.6175C26.3071 89.263 26.108 88.7829 26.108 88.2825C26.1089 87.7847 26.3075 87.3075 26.6604 86.955C26.8357 86.7787 27.0444 86.6387 27.2743 86.5432C27.5042 86.4476 27.7509 86.3984 28 86.3984C28.2492 86.3984 28.4958 86.4476 28.7257 86.5432C28.9557 86.6387 29.1643 86.7787 29.3396 86.955C29.6934 87.3083 29.892 87.7869 29.892 88.2859C29.892 88.7849 29.6934 89.2635 29.3396 89.6168C28.9839 89.9706 28.5027 90.1708 28 90.1739Z" fill="#00CBBF"/>
<path d="M28 90.1739C27.4976 90.1721 27.0164 89.972 26.6618 89.6175C26.3071 89.263 26.108 88.7829 26.108 88.2825C26.1089 87.7847 26.3075 87.3075 26.6604 86.955C26.8357 86.7787 27.0444 86.6387 27.2743 86.5432C27.5042 86.4476 27.7509 86.3984 28 86.3984C28.2492 86.3984 28.4958 86.4476 28.7257 86.5432C28.9557 86.6387 29.1643 86.7787 29.3396 86.955C29.6934 87.3083 29.892 87.7869 29.892 88.2859C29.892 88.7849 29.6934 89.2635 29.3396 89.6168C28.9839 89.9706 28.5027 90.1708 28 90.1739Z" fill="#00CBBF"/>
<path d="M9.91564 80.9061H46.1534V27.0933H9.91564V80.9061ZM47.7968 84.1869H8.23772C7.80003 84.1869 7.38027 84.0137 7.07078 83.7054C6.76128 83.3971 6.5874 82.979 6.5874 82.543V25.4563C6.5874 25.0204 6.76128 24.6022 7.07078 24.294C7.38027 23.9857 7.80003 23.8125 8.23772 23.8125H47.7623C48.1999 23.8125 48.6197 23.9857 48.9292 24.294C49.2387 24.6022 49.4126 25.0204 49.4126 25.4563V82.543C49.4126 82.979 49.2387 83.3971 48.9292 83.7054C48.6197 84.0137 48.1999 84.1869 47.7623 84.1869" fill="#00CBBF"/>
<path d="M9.91564 80.9061H46.1534V27.0933H9.91564V80.9061ZM47.7968 84.1869H8.23772C7.80003 84.1869 7.38027 84.0137 7.07078 83.7054C6.76128 83.3971 6.5874 82.979 6.5874 82.543V25.4563C6.5874 25.0204 6.76128 24.6022 7.07078 24.294C7.38027 23.9857 7.80003 23.8125 8.23772 23.8125H47.7623C48.1999 23.8125 48.6197 23.9857 48.9292 24.294C49.2387 24.6022 49.4126 25.0204 49.4126 25.4563V82.543C49.4126 82.979 49.2387 83.3971 48.9292 83.7054C48.6197 84.0137 48.1999 84.1869 47.7623 84.1869" fill="#00CBBF"/>
<path d="M24.2367 40.3745C23.2709 40.4069 22.3571 40.8184 21.6947 41.5194C21.0324 42.2204 20.6753 43.1538 20.7014 44.1161C20.7014 47.0667 25.4866 50.5813 28 52.1151C31.1142 50.2443 35.2986 46.8122 35.2986 44.1161C35.3265 43.1533 34.9701 42.2188 34.3073 41.5175C33.6446 40.8161 32.7297 40.4051 31.7633 40.3745C31.2821 40.3754 30.8067 40.4783 30.3686 40.6764C29.9305 40.8744 29.5397 41.163 29.2222 41.5231C29.0669 41.692 28.8781 41.8269 28.6677 41.9191C28.4573 42.0114 28.2299 42.059 28 42.059C27.7701 42.059 27.5427 42.0114 27.3323 41.9191C27.1219 41.8269 26.9331 41.692 26.7778 41.5231C26.4603 41.163 26.0695 40.8744 25.6314 40.6764C25.1933 40.4783 24.7179 40.3754 24.2367 40.3745ZM28 55.6504C27.7226 55.652 27.4494 55.5834 27.2059 55.4509C26.2047 54.9007 17.4076 49.9486 17.4076 44.1161C17.38 42.2833 18.0835 40.5145 19.3639 39.1979C20.6442 37.8813 22.3968 37.1245 24.2367 37.0938C25.581 37.0957 26.8931 37.5033 28 38.263C29.1073 37.5041 30.4192 37.0965 31.7633 37.0938C32.6755 37.109 33.5758 37.3031 34.4128 37.6649C35.2497 38.0268 36.0069 38.5493 36.6411 39.2027C37.2752 39.8561 37.774 40.6275 38.1088 41.473C38.4436 42.3184 38.6079 43.2212 38.5924 44.1299C38.5924 49.9417 29.7953 54.9144 28.7941 55.4647C28.5506 55.5971 28.2774 55.6657 28 55.6641" fill="#00CBBF"/>
<path d="M24.2367 40.3745C23.2709 40.4069 22.3571 40.8184 21.6947 41.5194C21.0324 42.2204 20.6753 43.1538 20.7014 44.1161C20.7014 47.0667 25.4866 50.5813 28 52.1151C31.1142 50.2443 35.2986 46.8122 35.2986 44.1161C35.3265 43.1533 34.9701 42.2188 34.3073 41.5175C33.6446 40.8161 32.7297 40.4051 31.7633 40.3745C31.2821 40.3754 30.8067 40.4783 30.3686 40.6764C29.9305 40.8744 29.5397 41.163 29.2222 41.5231C29.0669 41.692 28.8781 41.8269 28.6677 41.9191C28.4573 42.0114 28.2299 42.059 28 42.059C27.7701 42.059 27.5427 42.0114 27.3323 41.9191C27.1219 41.8269 26.9331 41.692 26.7778 41.5231C26.4603 41.163 26.0695 40.8744 25.6314 40.6764C25.1933 40.4783 24.7179 40.3754 24.2367 40.3745ZM28 55.6504C27.7226 55.652 27.4494 55.5834 27.2059 55.4509C26.2047 54.9007 17.4076 49.9486 17.4076 44.1161C17.38 42.2833 18.0835 40.5145 19.3639 39.1979C20.6442 37.8813 22.3968 37.1245 24.2367 37.0938C25.581 37.0957 26.8931 37.5033 28 38.263C29.1073 37.5041 30.4192 37.0965 31.7633 37.0938C32.6755 37.109 33.5758 37.3031 34.4128 37.6649C35.2497 38.0268 36.0069 38.5493 36.6411 39.2027C37.2752 39.8561 37.774 40.6275 38.1088 41.473C38.4436 42.3184 38.6079 43.2212 38.5924 44.1299C38.5924 49.9417 29.7953 54.9144 28.7941 55.4647C28.5506 55.5971 28.2774 55.6657 28 55.6641" fill="#00CBBF"/>
<path d="M34.401 64.2217H21.599C21.3738 64.2362 21.148 64.2046 20.9355 64.1287C20.723 64.0529 20.5284 63.9344 20.3638 63.7807C20.1991 63.6269 20.0678 63.4412 19.9781 63.2349C19.8883 63.0286 19.842 62.8061 19.842 62.5813C19.842 62.3565 19.8883 62.1341 19.9781 61.9278C20.0678 61.7215 20.1991 61.5357 20.3638 61.382C20.5284 61.2282 20.723 61.1098 20.9355 61.0339C21.148 60.958 21.3738 60.9264 21.599 60.9409H34.401C34.6263 60.9264 34.8521 60.958 35.0646 61.0339C35.277 61.1098 35.4716 61.2282 35.6363 61.382C35.801 61.5357 35.9322 61.7215 36.022 61.9278C36.1117 62.1341 36.158 62.3565 36.158 62.5813C36.158 62.8061 36.1117 63.0286 36.022 63.2349C35.9322 63.4412 35.801 63.6269 35.6363 63.7807C35.4716 63.9344 35.277 64.0529 35.0646 64.1287C34.8521 64.2046 34.6263 64.2362 34.401 64.2217Z" fill="#00CBBF"/>
<path d="M34.401 64.2217H21.599C21.3738 64.2362 21.148 64.2046 20.9355 64.1287C20.723 64.0529 20.5284 63.9344 20.3638 63.7807C20.1991 63.6269 20.0678 63.4412 19.9781 63.2349C19.8883 63.0286 19.842 62.8061 19.842 62.5813C19.842 62.3565 19.8883 62.1341 19.9781 61.9278C20.0678 61.7215 20.1991 61.5357 20.3638 61.382C20.5284 61.2282 20.723 61.1098 20.9355 61.0339C21.148 60.958 21.3738 60.9264 21.599 60.9409H34.401C34.6263 60.9264 34.8521 60.958 35.0646 61.0339C35.277 61.1098 35.4716 61.2282 35.6363 61.382C35.801 61.5357 35.9322 61.7215 36.022 61.9278C36.1117 62.1341 36.158 62.3565 36.158 62.5813C36.158 62.8061 36.1117 63.0286 36.022 63.2349C35.9322 63.4412 35.801 63.6269 35.6363 63.7807C35.4716 63.9344 35.277 64.0529 35.0646 64.1287C34.8521 64.2046 34.6263 64.2362 34.401 64.2217Z" fill="#00CBBF"/>
<path d="M34.401 72.0967H21.599C21.3738 72.1112 21.148 72.0796 20.9355 72.0037C20.723 71.9279 20.5284 71.8094 20.3638 71.6557C20.1991 71.5019 20.0678 71.3162 19.9781 71.1099C19.8883 70.9036 19.842 70.6811 19.842 70.4563C19.842 70.2315 19.8883 70.0091 19.9781 69.8028C20.0678 69.5965 20.1991 69.4107 20.3638 69.257C20.5284 69.1032 20.723 68.9848 20.9355 68.9089C21.148 68.833 21.3738 68.8014 21.599 68.8159H34.401C34.6263 68.8014 34.8521 68.833 35.0646 68.9089C35.277 68.9848 35.4716 69.1032 35.6363 69.257C35.801 69.4107 35.9322 69.5965 36.022 69.8028C36.1117 70.0091 36.158 70.2315 36.158 70.4563C36.158 70.6811 36.1117 70.9036 36.022 71.1099C35.9322 71.3162 35.801 71.5019 35.6363 71.6557C35.4716 71.8094 35.277 71.9279 35.0646 72.0037C34.8521 72.0796 34.6263 72.1112 34.401 72.0967Z" fill="#00CBBF"/>
<path d="M34.401 72.0967H21.599C21.3738 72.1112 21.148 72.0796 20.9355 72.0037C20.723 71.9279 20.5284 71.8094 20.3638 71.6557C20.1991 71.5019 20.0678 71.3162 19.9781 71.1099C19.8883 70.9036 19.842 70.6811 19.842 70.4563C19.842 70.2315 19.8883 70.0091 19.9781 69.8028C20.0678 69.5965 20.1991 69.4107 20.3638 69.257C20.5284 69.1032 20.723 68.9848 20.9355 68.9089C21.148 68.833 21.3738 68.8014 21.599 68.8159H34.401C34.6263 68.8014 34.8521 68.833 35.0646 68.9089C35.277 68.9848 35.4716 69.1032 35.6363 69.257C35.801 69.4107 35.9322 69.5965 36.022 69.8028C36.1117 70.0091 36.158 70.2315 36.158 70.4563C36.158 70.6811 36.1117 70.9036 36.022 71.1099C35.9322 71.3162 35.801 71.5019 35.6363 71.6557C35.4716 71.8094 35.277 71.9279 35.0646 72.0037C34.8521 72.0796 34.6263 72.1112 34.401 72.0967Z" fill="#00CBBF"/>
</g>
<path d="M45.25 26.2109V32.3776" stroke="#FEBF1E" stroke-width="2.5" stroke-linecap="round" stroke-linejoin="round"/>
<path d="M42.1666 29.2943H48.3333" stroke="#FEBF1E" stroke-width="2.5" stroke-linecap="round" stroke-linejoin="round"/>
<path d="M62.2083 4.625V10.7917" stroke="#FEBF1E" stroke-width="2.5" stroke-linecap="round" stroke-linejoin="round"/>
<path d="M59.125 7.70833H65.2917" stroke="#FEBF1E" stroke-width="2.5" stroke-linecap="round" stroke-linejoin="round"/>
<path d="M46.0209 7.71094C46.0209 10.691 48.4367 13.1068 51.4167 13.1068" stroke="#FEBF1E" stroke-width="2.5" stroke-linecap="round" stroke-linejoin="round"/>
<path d="M51.4167 13.1016C48.4367 13.1016 46.0209 15.5174 46.0209 18.4974" stroke="#FEBF1E" stroke-width="2.5" stroke-linecap="round" stroke-linejoin="round"/>
<path d="M46.0208 18.4974C46.0208 15.5174 43.605 13.1016 40.625 13.1016" stroke="#FEBF1E" stroke-width="2.5" stroke-linecap="round" stroke-linejoin="round"/>
<path d="M40.625 13.1068C43.605 13.1068 46.0208 10.691 46.0208 7.71094" stroke="#FEBF1E" stroke-width="2.5" stroke-linecap="round" stroke-linejoin="round"/>
<path d="M53.8972 24.3241C57.8948 24.3241 61.1353 21.0835 61.1353 17.0859" stroke="#FEBF1E" stroke-width="2.5" stroke-linecap="round" stroke-linejoin="round"/>
<path d="M61.1368 17.0859C61.1368 21.0835 64.3774 24.3241 68.375 24.3241" stroke="#FEBF1E" stroke-width="2.5" stroke-linecap="round" stroke-linejoin="round"/>
<path d="M68.375 24.3281C64.3774 24.3281 61.1368 27.5687 61.1368 31.5663" stroke="#FEBF1E" stroke-width="2.5" stroke-linecap="round" stroke-linejoin="round"/>
<path d="M61.1369 31.5663C61.1369 27.5687 57.8963 24.3281 53.8988 24.3281" stroke="#FEBF1E" stroke-width="2.5" stroke-linecap="round" stroke-linejoin="round"/>
<defs>
<clipPath id="clip0_45324_369327">
<rect width="56" height="84" fill="white" transform="translate(0 12)"/>
</clipPath>
</defs>
</svg>
