<svg width="54" height="70" viewBox="0 0 54 70" fill="none" xmlns="http://www.w3.org/2000/svg">
<path d="M42.3687 69.9999C41.8745 70.0013 41.385 69.9041 40.9288 69.7142C40.4727 69.5242 40.059 69.2453 39.7121 68.8936C39.3652 68.542 39.092 68.1247 38.9084 67.6662C38.7249 67.2078 38.6347 66.7174 38.6432 66.2237V56.8937C38.6469 56.8412 38.6392 56.7885 38.6207 56.7392C38.6023 56.6899 38.5734 56.6451 38.5362 56.6079C38.4989 56.5706 38.4541 56.5418 38.4047 56.5233C38.3554 56.5049 38.3026 56.4972 38.2501 56.5009C37.9685 56.5009 37.6985 56.3891 37.4994 56.1902C37.3003 55.9913 37.1885 55.7215 37.1885 55.4402C37.1885 55.1589 37.3003 54.8891 37.4994 54.6902C37.6985 54.4912 37.9685 54.3795 38.2501 54.3795C38.5814 54.3762 38.9101 54.439 39.2169 54.5642C39.5237 54.6894 39.8024 54.8745 40.0367 55.1086C40.271 55.3427 40.4563 55.6212 40.5816 55.9277C40.7069 56.2342 40.7697 56.5626 40.7664 56.8937V66.2237C40.7606 66.4381 40.7976 66.6515 40.8753 66.8513C40.9531 67.0512 41.07 67.2336 41.2192 67.3877C41.3685 67.5419 41.547 67.6647 41.7444 67.749C41.9418 67.8333 42.154 67.8773 42.3687 67.8785C43.3074 67.8785 43.7301 67.0192 43.7301 66.2237V44.6174C43.7484 44.3479 43.8685 44.0954 44.066 43.911C44.2636 43.7267 44.5238 43.6241 44.7941 43.6241C45.0645 43.6241 45.3247 43.7267 45.5222 43.911C45.7198 44.0954 45.8398 44.3479 45.8582 44.6174V51.9488C45.8883 52.0525 45.9032 52.16 45.9024 52.268C45.8979 52.4574 45.9308 52.6457 45.9992 52.8224C46.0677 52.999 46.1704 53.1604 46.3015 53.2972C46.4325 53.4341 46.5894 53.5438 46.7629 53.62C46.9365 53.6961 47.1234 53.7373 47.313 53.7411C48.178 53.7411 48.4827 52.9555 48.4827 52.268V44.3424C48.4814 43.0956 47.9848 41.9003 47.1019 41.0191C46.2191 40.138 45.0222 39.643 43.7743 39.643C43.4928 39.643 43.2227 39.5313 43.0237 39.3324C42.8246 39.1335 42.7127 38.8637 42.7127 38.5824C42.7127 38.3011 42.8246 38.0313 43.0237 37.8324C43.2227 37.6334 43.4928 37.5217 43.7743 37.5217H44.1626C44.247 37.5212 44.3312 37.5311 44.4132 37.5511C46.1058 37.7111 47.678 38.4955 48.823 39.7512C49.968 41.0068 50.6037 42.6437 50.6059 44.3424V52.2876C50.6059 54.3255 49.1904 55.8674 47.313 55.8674C46.8042 55.8687 46.3011 55.7599 45.8385 55.5482V66.2335C45.8582 68.3745 44.3592 69.9999 42.3687 69.9999ZM20.7435 69.9999C18.5072 69.9999 16.8116 68.1683 16.8116 65.7425V51.9439C16.2309 52.2649 15.5782 52.4339 14.9145 52.4349C12.7913 52.4349 11.1891 50.7113 11.1891 48.423V38.1355C11.1891 36.0517 12.0176 34.0533 13.4923 32.5799C14.967 31.1064 16.9672 30.2787 19.0528 30.2787H32.1901C34.2757 30.2787 36.2758 31.1064 37.7506 32.5799C39.2253 34.0533 40.0538 36.0517 40.0538 38.1355V48.4034C40.0538 50.6917 38.4516 52.4153 36.3284 52.4153C35.6837 52.4163 35.0488 52.2577 34.4804 51.9537V65.6442C34.4804 68.07 32.7946 69.9017 30.5485 69.9017C29.4253 69.8939 28.3511 69.4413 27.5615 68.6431C26.7718 67.845 26.3313 66.7665 26.3365 65.6442V53.7804C26.3333 53.6908 26.3125 53.6027 26.2751 53.5211C26.2378 53.4395 26.1848 53.3661 26.1191 53.305C26.0534 53.2439 25.9762 53.1963 25.8921 53.165C25.808 53.1337 25.7185 53.1192 25.6288 53.1224C25.5391 53.1256 25.4509 53.1465 25.3693 53.1838C25.2876 53.2211 25.2141 53.274 25.1529 53.3397C25.0918 53.4053 25.0442 53.4824 25.0128 53.5664C24.9815 53.6505 24.967 53.7399 24.9702 53.8295V65.7425C24.9755 66.8656 24.5343 67.9448 23.7436 68.7431C22.9529 69.5413 21.8774 69.9934 20.7533 69.9999H20.7435ZM17.9076 37.4137C18.1892 37.4137 18.4592 37.5254 18.6583 37.7243C18.8574 37.9232 18.9692 38.193 18.9692 38.4743V65.7425C18.9692 66.7688 19.5295 67.8785 20.7681 67.8785C21.3282 67.8708 21.8624 67.6417 22.2538 67.2413C22.6453 66.841 22.8621 66.3021 22.8569 65.7425V53.8295C22.8503 53.0859 23.1398 52.3701 23.6614 51.8397C24.1831 51.3092 24.8944 51.0076 25.6386 51.0011C26.3829 50.9946 27.0993 51.2837 27.6302 51.805C28.1611 52.3262 28.4631 53.0368 28.4696 53.7804V65.6442C28.4643 66.2039 28.6811 66.7428 29.0726 67.1432C29.4641 67.5435 29.9983 67.7726 30.5584 67.7803C31.792 67.7803 32.3572 66.6705 32.3572 65.6442V38.4743C32.3572 38.193 32.469 37.9232 32.6681 37.7243C32.8672 37.5254 33.1372 37.4137 33.4188 37.4137C33.7003 37.4137 33.9704 37.5254 34.1695 37.7243C34.3685 37.9232 34.4804 38.193 34.4804 38.4743V48.4034C34.4751 48.8988 34.6668 49.376 35.0132 49.7304C35.3596 50.0848 35.8326 50.2875 36.3284 50.2939C37.4293 50.2939 37.9306 49.3119 37.9306 48.4034V38.1355C37.9293 36.6186 37.3256 35.1643 36.2521 34.0917C35.1786 33.0192 33.723 32.416 32.2048 32.4147H19.0528C17.5355 32.4173 16.0811 33.021 15.0087 34.0935C13.9362 35.1659 13.3332 36.6195 13.3319 38.1355V48.4034C13.3319 49.3413 13.8824 50.2939 14.9342 50.2939C15.1814 50.2968 15.4266 50.2494 15.655 50.1549C15.8834 50.0603 16.0902 49.9204 16.263 49.7437C16.4357 49.567 16.5708 49.357 16.66 49.1267C16.7493 48.8963 16.7908 48.6503 16.7821 48.4034C16.7808 48.295 16.7974 48.1872 16.8313 48.0842V38.4743C16.8313 38.3338 16.8592 38.1947 16.9135 38.065C16.9678 37.9353 17.0473 37.8178 17.1474 37.7191C17.2476 37.6204 17.3663 37.5425 17.4969 37.4901C17.6274 37.4377 17.767 37.4117 17.9076 37.4137ZM8.8398 69.9999C6.87388 69.9999 5.3552 68.3745 5.3552 66.2237V55.558C4.9112 55.7555 4.43064 55.8575 3.94465 55.8576C2.06719 55.8576 0.651733 54.3157 0.651733 52.2778V44.3424C0.653955 42.6437 1.28958 41.0068 2.43458 39.7512C3.57959 38.4955 5.15179 37.7111 6.84439 37.5511C6.92652 37.5317 7.01064 37.5218 7.09505 37.5217H7.48332C7.76488 37.5217 8.03489 37.6334 8.23398 37.8324C8.43307 38.0313 8.54492 38.3011 8.54492 38.5824C8.54492 38.8637 8.43307 39.1335 8.23398 39.3324C8.03489 39.5313 7.76488 39.643 7.48332 39.643C6.23583 39.6443 5.03973 40.1397 4.15715 41.0206C3.27458 41.9015 2.77752 43.096 2.77492 44.3424V52.2876C2.77492 52.9604 3.08456 53.7608 3.94465 53.7608C4.13419 53.757 4.32113 53.7158 4.4947 53.6396C4.66828 53.5634 4.82509 53.4538 4.95614 53.3169C5.08719 53.18 5.1899 53.0186 5.25838 52.842C5.32686 52.6654 5.35977 52.477 5.3552 52.2876V44.6272C5.3552 44.3459 5.46705 44.0761 5.66614 43.8772C5.86523 43.6783 6.13525 43.5665 6.4168 43.5665C6.69836 43.5665 6.96837 43.6783 7.16746 43.8772C7.36655 44.0761 7.4784 44.3459 7.4784 44.6272V66.2335C7.4784 67.029 7.90599 67.8884 8.8398 67.8884C9.05467 67.8871 9.26713 67.8431 9.46477 67.7589C9.66242 67.6747 9.84129 67.5519 9.99092 67.3979C10.1405 67.2438 10.2579 67.0615 10.3362 66.8615C10.4145 66.6616 10.4522 66.4481 10.447 66.2335V56.9035C10.4437 56.5724 10.5065 56.244 10.6318 55.9375C10.7571 55.631 10.9423 55.3525 11.1767 55.1184C11.411 54.8843 11.6897 54.6992 11.9965 54.574C12.3033 54.4488 12.632 54.3861 12.9633 54.3893C13.2449 54.3893 13.5149 54.5011 13.714 54.7C13.9131 54.8989 14.0249 55.1687 14.0249 55.45C14.0249 55.7313 13.9131 56.0011 13.714 56.2C13.5149 56.3989 13.2449 56.5107 12.9633 56.5107C12.9108 56.5071 12.858 56.5147 12.8087 56.5332C12.7593 56.5516 12.7145 56.5804 12.6772 56.6177C12.64 56.6549 12.6111 56.6997 12.5927 56.749C12.5742 56.7983 12.5665 56.851 12.5702 56.9035V66.2335C12.5774 66.7281 12.4856 67.219 12.3003 67.6776C12.1149 68.1362 11.8397 68.5532 11.4908 68.9041C11.142 69.2549 10.7264 69.5326 10.2686 69.7208C9.81086 69.909 9.32006 70.0039 8.82506 69.9999H8.8398ZM42.8208 35.7588C42.602 35.7588 42.3884 35.6912 42.2095 35.5653C42.0306 35.4394 41.8949 35.2613 41.8212 35.0554C41.7475 34.8495 41.7393 34.6258 41.7977 34.4151C41.8561 34.2043 41.9783 34.0168 42.1475 33.8781C42.6659 33.4565 43.0857 32.9268 43.3777 32.326C43.6696 31.7253 43.8265 31.068 43.8375 30.4003C43.8485 29.7326 43.7133 29.0705 43.4412 28.4605C43.1692 27.8505 42.767 27.3073 42.2628 26.8689C41.7586 26.4305 41.1646 26.1075 40.5223 25.9226C39.8801 25.7377 39.2051 25.6953 38.5447 25.7984C37.8843 25.9015 37.2545 26.1476 36.6993 26.5194C36.1441 26.8913 35.677 27.3799 35.3307 27.9511C35.2587 28.0746 35.1625 28.1823 35.0479 28.2677C34.9333 28.3532 34.8025 28.4146 34.6636 28.4483C34.5246 28.482 34.3802 28.4873 34.2391 28.4639C34.098 28.4405 33.9632 28.3888 33.8426 28.312C33.722 28.2352 33.6181 28.1348 33.5373 28.0169C33.4565 27.8991 33.4003 27.7661 33.3722 27.626C33.3441 27.4858 33.3447 27.3415 33.3738 27.2016C33.4029 27.0617 33.46 26.9291 33.5417 26.8118C33.925 26.1802 34.4137 25.6189 34.9866 25.1521C36.3726 24.1664 38.0817 23.7436 39.7679 23.9693C41.4541 24.1951 42.9915 25.0524 44.0689 26.3679C45.1463 27.6834 45.6833 29.3587 45.5711 31.0548C45.4589 32.7509 44.706 34.3411 43.4647 35.5035C43.2814 35.6622 43.0486 35.7525 42.8061 35.7588H42.8208ZM8.45154 35.7588C8.20748 35.7589 7.97104 35.6738 7.78312 35.5182C7.09969 34.9609 6.53334 34.2739 6.1167 33.497C5.70007 32.7201 5.44137 31.8685 5.35548 30.9913C5.2696 30.1141 5.35824 29.2285 5.6163 28.3857C5.87436 27.5428 6.29674 26.7593 6.85913 26.0802C7.98948 24.7081 9.61855 23.8403 11.3887 23.6673C13.1588 23.4942 14.9254 24.03 16.3005 25.157C16.9029 25.6408 17.4125 26.2298 17.8044 26.8953C17.9465 27.1382 17.9862 27.4275 17.9148 27.6997C17.8433 27.9718 17.6666 28.2044 17.4235 28.3464C17.1804 28.4883 16.8908 28.528 16.6185 28.4566C16.3461 28.3852 16.1133 28.2087 15.9712 27.9658C15.7185 27.5218 15.3851 27.1288 14.9882 26.8069C14.5235 26.4239 13.9879 26.136 13.4118 25.9598C12.8358 25.7836 12.2306 25.7225 11.6309 25.7799C11.0313 25.8374 10.4488 26.0123 9.91675 26.2947C9.38471 26.577 8.91356 26.9613 8.53018 27.4256C8.1468 27.8899 7.85869 28.4251 7.68233 29.0007C7.50596 29.5762 7.44479 30.1808 7.5023 30.78C7.5598 31.3792 7.73486 31.9612 8.01748 32.4927C8.30009 33.0243 8.68473 33.495 9.14944 33.8781C9.31866 34.0168 9.44085 34.2043 9.49925 34.4151C9.55766 34.6258 9.54944 34.8495 9.47572 35.0554C9.402 35.2613 9.26639 35.4394 9.08745 35.5653C8.9085 35.6912 8.69498 35.7588 8.47611 35.7588H8.45154ZM25.6534 29.1198C24.1205 29.1198 22.6219 28.6656 21.3474 27.8147C20.0728 26.9638 19.0793 25.7544 18.4927 24.3393C17.9061 22.9243 17.7526 21.3673 18.0517 19.8651C18.3507 18.3629 19.0889 16.9831 20.1728 15.9001C21.2568 14.8171 22.6378 14.0796 24.1413 13.7808C25.6448 13.482 27.2032 13.6353 28.6194 14.2215C30.0357 14.8076 31.2462 15.8001 32.0978 17.0736C32.9495 18.3471 33.404 19.8443 33.404 21.3759C33.4027 23.4301 32.5851 25.3998 31.1308 26.8519C29.6764 28.3041 27.7045 29.1198 25.6485 29.1198H25.6534ZM25.6534 15.7533C24.1609 15.7533 22.7295 16.3457 21.6742 17.4001C20.6188 18.4546 20.0259 19.8847 20.0259 21.3759C20.0259 22.8671 20.6188 24.2972 21.6742 25.3516C22.7295 26.4061 24.1609 26.9984 25.6534 26.9984C26.3924 26.9984 27.1242 26.853 27.8069 26.5704C28.4897 26.2879 29.1101 25.8737 29.6326 25.3516C30.1552 24.8295 30.5697 24.2097 30.8525 23.5275C31.1353 22.8454 31.2808 22.1143 31.2808 21.3759C31.2808 20.6375 31.1353 19.9064 30.8525 19.2242C30.5697 18.5421 30.1552 17.9222 29.6326 17.4001C29.1101 16.878 28.4897 16.4639 27.8069 16.1813C27.1242 15.8988 26.3924 15.7533 25.6534 15.7533ZM41.602 20.983C41.4161 20.9835 41.2333 20.9362 41.0712 20.8455L40.732 20.6491C40.329 20.4134 29.7278 13.9806 29.7278 6.75235C29.7317 5.38686 30.1486 4.05443 30.924 2.92994C31.6993 1.80545 32.7968 0.941438 34.0725 0.451287C35.3481 -0.0388637 36.7422 -0.132244 38.0719 0.183387C39.4016 0.499018 40.6047 1.20892 41.5233 2.21993C42.5494 1.10137 43.92 0.357185 45.4176 0.105431C46.9152 -0.146322 48.4541 0.108783 49.79 0.830261C50.857 1.41796 51.7486 2.27817 52.3738 3.32297C52.999 4.36777 53.3353 5.55968 53.3484 6.7769C53.3484 12.9887 45.755 18.518 42.4866 20.6098L42.408 20.6639L42.3638 20.6884L42.1229 20.8357C41.9631 20.929 41.7821 20.9797 41.5971 20.983H41.602ZM36.5053 2.1119C35.27 2.1132 34.0857 2.60407 33.2122 3.4768C32.3387 4.34953 31.8473 5.53285 31.846 6.76708C31.846 12.262 40.2012 17.8158 41.5774 18.6996C46.2956 15.6355 51.2448 10.9508 51.2448 6.81617C51.2348 5.97533 51.0021 5.15214 50.5705 4.43024C50.1389 3.70833 49.5237 3.11346 48.7874 2.70607C47.7039 2.11877 46.4315 1.9849 45.2494 2.33381C44.0672 2.68271 43.0719 3.48591 42.4817 4.56716C42.3895 4.73385 42.2542 4.8728 42.09 4.96953C41.9257 5.06625 41.7385 5.11722 41.5479 5.11714C41.3584 5.11787 41.1721 5.06766 41.0087 4.97176C40.8453 4.87586 40.7107 4.73781 40.619 4.57208C40.2163 3.83183 39.6222 3.21307 38.8986 2.78035C38.1751 2.34764 37.3486 2.1168 36.5053 2.1119ZM48.7186 7.82776C48.5792 7.82776 48.4412 7.80032 48.3124 7.74701C48.1836 7.69371 48.0665 7.61558 47.968 7.51709C47.8694 7.41859 47.7912 7.30167 47.7378 7.17298C47.6845 7.0443 47.657 6.90637 47.657 6.76708C47.659 6.61992 47.6315 6.47384 47.5762 6.33744C47.5209 6.20104 47.4389 6.07706 47.3349 5.97276C47.231 5.86847 47.1073 5.78597 46.971 5.73011C46.8347 5.67426 46.6886 5.64616 46.5414 5.64748C46.2598 5.64748 45.9898 5.53573 45.7907 5.33681C45.5916 5.1379 45.4798 4.86812 45.4798 4.58681C45.4798 4.3055 45.5916 4.0357 45.7907 3.83679C45.9898 3.63787 46.2598 3.52613 46.5414 3.52613C47.4008 3.52743 48.2246 3.86946 48.8319 4.47711C49.4391 5.08477 49.7802 5.90838 49.7802 6.76708C49.7763 7.04583 49.6628 7.31185 49.4641 7.50759C49.2654 7.70333 48.9976 7.81304 48.7186 7.81301V7.82776Z" fill="#00CBBF"/>
</svg>
